<svg
   viewBox="0 0 261 82"
   fill="none"
   xmlns="http://www.w3.org/2000/svg"
>
   <path
      fill-rule="evenodd"
      clip-rule="evenodd"
      d="M86.6026 78L43.3013 3L21.6589 40.4857L43.3178 78H86.6026Z"
      fill="#737373"
   />
   <path
      fill-rule="evenodd"
      clip-rule="evenodd"
      d="M15.1219 51.808L0 77.9999H30.2438L15.1219 51.808Z"
      fill="#2BAA9D"
   />
   <path
      d="M118.592 60.78C112.56 60.78 107.88 59.2027 104.552 56.048C101.259 52.8587 99.612 48.2827 99.612 42.32C99.612 36.3573 101.276 31.7987 104.604 28.644C107.932 25.4547 112.595 23.86 118.592 23.86C121.123 23.86 123.445 24.12 125.56 24.64C127.675 25.1253 129.425 25.836 130.812 26.772C131.193 27.0147 131.384 27.292 131.384 27.604C131.384 27.7427 131.297 27.9853 131.124 28.332L129.148 31.66C128.905 32.0413 128.663 32.232 128.42 32.232C128.247 32.232 127.969 32.128 127.588 31.92C125.3 30.672 122.665 30.048 119.684 30.048C116.079 30.048 113.253 31.0707 111.208 33.116C109.163 35.1613 108.14 38.2293 108.14 42.32C108.14 46.4453 109.093 49.5133 111 51.524C112.907 53.5347 115.593 54.54 119.06 54.54C120.169 54.54 121.261 54.4533 122.336 54.28C123.411 54.1067 124.277 53.864 124.936 53.552V45.544H119.268C118.436 45.544 117.864 45.388 117.552 45.076C117.24 44.7293 117.084 44.1573 117.084 43.36V41.488C117.084 40.7253 117.24 40.188 117.552 39.876C117.864 39.5293 118.436 39.356 119.268 39.356H130.292C131.263 39.356 131.939 39.5813 132.32 40.032C132.736 40.4827 132.944 41.176 132.944 42.112V55.32C132.944 55.9093 132.875 56.36 132.736 56.672C132.597 56.984 132.32 57.2787 131.904 57.556C128.541 59.7053 124.104 60.78 118.592 60.78ZM150.995 60.78C148.187 60.78 145.656 60.312 143.403 59.376C141.184 58.4053 139.416 56.9667 138.099 55.06C136.816 53.1187 136.175 50.7267 136.175 47.884C136.175 43.4467 137.388 40.0667 139.815 37.744C142.276 35.4213 145.777 34.26 150.319 34.26C154.791 34.26 158.171 35.3867 160.459 37.64C162.781 39.8933 163.942 43.1 163.942 47.26C163.942 48.716 163.284 49.444 161.967 49.444H144.287C144.287 51.316 144.98 52.772 146.367 53.812C147.788 54.8173 149.729 55.32 152.191 55.32C153.647 55.32 154.912 55.1813 155.987 54.904C157.061 54.592 158.101 54.1587 159.107 53.604C159.453 53.4307 159.696 53.344 159.835 53.344C160.077 53.344 160.303 53.5347 160.511 53.916L162.018 56.724C162.157 56.9667 162.227 57.1747 162.227 57.348C162.227 57.6253 162.036 57.9027 161.655 58.18C160.268 59.0813 158.708 59.74 156.975 60.156C155.241 60.572 153.248 60.78 150.995 60.78ZM156.247 44.972C156.247 43.2387 155.761 41.8867 154.791 40.916C153.82 39.9453 152.347 39.46 150.371 39.46C148.395 39.46 146.887 39.9627 145.847 40.968C144.807 41.9387 144.287 43.2733 144.287 44.972H156.247ZM181.711 60.78C177.1 60.78 173.512 59.6013 170.947 57.244C168.416 54.852 167.151 51.6107 167.151 47.52C167.151 43.4293 168.416 40.2053 170.947 37.848C173.512 35.456 177.1 34.26 181.711 34.26C186.356 34.26 189.944 35.456 192.475 37.848C195.04 40.2053 196.323 43.4293 196.323 47.52C196.323 51.6107 195.04 54.852 192.475 57.244C189.944 59.6013 186.356 60.78 181.711 60.78ZM181.711 54.592C183.687 54.592 185.195 54.0027 186.235 52.824C187.275 51.6453 187.795 49.8773 187.795 47.52C187.795 45.1973 187.275 43.4467 186.235 42.268C185.195 41.0893 183.687 40.5 181.711 40.5C179.77 40.5 178.279 41.0893 177.239 42.268C176.199 43.4467 175.679 45.1973 175.679 47.52C175.679 49.8427 176.199 51.6107 177.239 52.824C178.279 54.0027 179.77 54.592 181.711 54.592ZM213.972 60.78C203.849 60.78 198.788 56.3253 198.788 47.416C198.788 44.816 199.273 42.528 200.244 40.552C201.249 38.5413 202.705 36.9987 204.612 35.924C206.518 34.8147 208.789 34.26 211.424 34.26C212.914 34.26 214.249 34.4333 215.428 34.78C216.641 35.092 217.612 35.56 218.34 36.184V26.928C218.34 26.1307 218.513 25.5587 218.86 25.212C219.206 24.8307 219.813 24.64 220.68 24.64H224.424C225.256 24.64 225.845 24.8307 226.192 25.212C226.573 25.5933 226.764 26.1653 226.764 26.928V57.244C225.342 58.284 223.488 59.1333 221.2 59.792C218.912 60.4507 216.502 60.78 213.972 60.78ZM214.18 54.852C215.878 54.852 217.265 54.5573 218.34 53.968V44.452C218.34 43.0307 217.889 41.9733 216.988 41.28C216.086 40.552 214.873 40.188 213.348 40.188C211.302 40.188 209.777 40.8467 208.772 42.164C207.801 43.4467 207.316 45.232 207.316 47.52C207.316 50.1547 207.888 52.044 209.032 53.188C210.176 54.2973 211.892 54.852 214.18 54.852ZM241.244 60.78C237.916 60.78 235.247 59.74 233.236 57.66C231.26 55.58 230.272 52.6507 230.272 48.872C230.272 45.96 230.948 43.412 232.3 41.228C233.652 39.0093 235.541 37.2933 237.968 36.08C240.395 34.8667 243.203 34.26 246.392 34.26C248.853 34.26 251.02 34.5373 252.892 35.092C254.799 35.6467 256.532 36.444 258.092 37.484V58.492C258.092 59.0813 257.971 59.48 257.728 59.688C257.52 59.896 257.087 60 256.428 60H252.32C251.939 60 251.644 59.9307 251.436 59.792C251.263 59.6533 251.124 59.428 251.02 59.116L250.448 57.296C249.408 58.5093 248.143 59.3933 246.652 59.948C245.161 60.5027 243.359 60.78 241.244 60.78ZM244.416 54.852C245.941 54.852 247.259 54.4187 248.368 53.552C249.512 52.6853 250.084 51.5067 250.084 50.016V40.916C249.044 40.396 247.796 40.136 246.34 40.136C244.052 40.136 242.215 40.8987 240.828 42.424C239.476 43.9147 238.8 46.012 238.8 48.716C238.8 50.796 239.268 52.3387 240.204 53.344C241.14 54.3493 242.544 54.852 244.416 54.852Z"
      fill="black"
   />
</svg>