<svg viewBox="0 0 294 41" fill="none" xmlns="http://www.w3.org/2000/svg">
<path d="M268 0H0L26 41H294L268 0Z" fill="#44A757"/>
<path d="M84.3875 25H77.7475L76.5475 30H69.1875L76.5475 7.2H85.9475L92.9875 30H85.5875L84.3875 25ZM81.0275 12.12L78.6675 20.56H83.4275L81.1875 12.12H81.0275ZM95.0166 7.2H102.217V30H95.0166V7.2ZM118.841 13.36C118.841 13.92 119.121 14.36 119.681 14.68C120.268 15 121.175 15.3467 122.401 15.72C123.868 16.2 125.068 16.6667 126.001 17.12C126.961 17.5733 127.788 18.28 128.481 19.24C129.201 20.2 129.561 21.4533 129.561 23C129.561 27.96 126.335 30.44 119.881 30.44C118.815 30.44 117.508 30.3467 115.961 30.16C114.441 29.9733 113.055 29.7333 111.801 29.44C111.855 28.88 111.961 28.0667 112.121 27C112.308 25.9067 112.481 25.0933 112.641 24.56C113.575 24.6933 114.975 24.8533 116.841 25.04C118.735 25.2267 120.161 25.32 121.121 25.32C121.681 25.32 122.015 25.28 122.121 25.2C122.281 25.0933 122.401 24.92 122.481 24.68C122.588 24.4133 122.641 24.1867 122.641 24C122.641 23.4667 122.388 23.0667 121.881 22.8C121.375 22.5067 120.508 22.16 119.281 21.76C117.815 21.3067 116.601 20.84 115.641 20.36C114.681 19.88 113.841 19.1333 113.121 18.12C112.401 17.1067 112.041 15.7733 112.041 14.12C112.041 12.9467 112.308 11.8 112.841 10.68C113.375 9.53333 113.921 8.76 114.481 8.36C114.908 8.06667 115.788 7.78666 117.121 7.52C118.455 7.25333 119.708 7.12 120.881 7.12C123.868 7.12 126.308 7.4 128.201 7.96C128.175 8.49333 128.081 9.22667 127.921 10.16C127.788 11.0933 127.641 11.9467 127.481 12.72L126.561 12.68C123.095 12.44 120.881 12.32 119.921 12.32C119.521 12.32 119.295 12.3333 119.241 12.36C119.135 12.4133 119.041 12.5333 118.961 12.72C118.881 12.9067 118.841 13.12 118.841 13.36ZM143.667 25.2C144.334 25.2 145.574 25.1333 147.387 25C147.627 25 148.067 24.9733 148.707 24.92L149.307 29.04C147.254 30 144.587 30.48 141.307 30.48C138.241 30.48 135.881 29.7067 134.227 28.16C132.601 26.6133 131.787 24.28 131.787 21.16C131.787 19.56 131.987 18.0133 132.387 16.52C132.814 15.0267 133.294 13.9867 133.827 13.4C134.387 12.8133 135.427 12.3067 136.947 11.88C138.467 11.4533 139.974 11.24 141.467 11.24C143.867 11.24 145.667 11.6667 146.867 12.52C148.067 13.3733 148.854 14.56 149.227 16.08C149.601 17.5733 149.787 19.5867 149.787 22.12C147.974 22.2267 146.201 22.28 144.467 22.28H138.787C138.787 23.1333 138.961 23.7733 139.307 24.2C139.681 24.6267 140.201 24.9067 140.867 25.04C141.534 25.1467 142.467 25.2 143.667 25.2ZM139.187 16C139.027 16.08 138.907 16.4267 138.827 17.04C138.747 17.6533 138.694 18.3467 138.667 19.12H140.747C142.001 19.12 142.907 19.1067 143.467 19.08C143.467 17.8 143.281 16.8933 142.907 16.36C142.561 15.8267 141.947 15.56 141.067 15.56C140.347 15.56 139.721 15.7067 139.187 16ZM163.155 30L162.515 27.48C161.288 29.48 159.581 30.48 157.395 30.48C155.608 30.48 154.141 29.9867 152.995 29C151.875 27.9867 151.315 26.5733 151.315 24.76C151.315 23.64 151.635 22.6667 152.275 21.84C152.941 20.9867 153.848 20.3867 154.995 20.04C156.488 19.6133 158.795 19.3733 161.915 19.32C161.915 17.56 161.835 16.6267 161.675 16.52C161.541 16.4133 161.115 16.36 160.395 16.36C159.941 16.36 159.315 16.3867 158.515 16.44C157.235 16.4933 155.501 16.64 153.315 16.88C153.101 15.44 152.941 13.8933 152.835 12.24C154.248 11.9467 155.728 11.7067 157.275 11.52C158.821 11.3067 160.208 11.2 161.435 11.2C163.568 11.2 165.168 11.56 166.235 12.28C167.301 12.9733 167.995 13.8933 168.315 15.04C168.635 16.1867 168.781 17.64 168.755 19.4L168.715 25.28L168.835 30H163.155ZM159.715 26C160.408 26 161.141 25.8667 161.915 25.6V22.64H161.595C159.621 22.64 158.528 22.7467 158.315 22.96C158.181 23.0933 158.075 23.2933 157.995 23.56C157.941 23.8267 157.915 24.08 157.915 24.32C157.915 24.96 158.061 25.4 158.355 25.64C158.648 25.88 159.101 26 159.715 26ZM183.243 11.2C183.59 11.2 183.95 11.24 184.323 11.32C184.723 11.4 185.016 11.4933 185.203 11.6C185.203 12.1867 185.136 13.16 185.003 14.52C184.87 15.8533 184.75 16.8 184.643 17.36C184.376 17.3333 183.883 17.32 183.163 17.32C181.483 17.32 179.99 17.4133 178.683 17.6V30H171.843V11.6H177.563L178.363 14.56H178.403C179.176 13.5467 180.003 12.7333 180.883 12.12C181.763 11.5067 182.55 11.2 183.243 11.2ZM202.479 29.44C200.319 30.16 197.906 30.52 195.239 30.52C192.253 30.52 190.013 29.7733 188.519 28.28C187.053 26.76 186.319 24.4 186.319 21.2C186.319 19.6267 186.533 18.08 186.959 16.56C187.386 15.0133 187.839 13.9733 188.319 13.44C188.879 12.8267 189.973 12.3067 191.599 11.88C193.253 11.4533 194.959 11.24 196.719 11.24C198.559 11.24 200.413 11.4 202.279 11.72C202.226 12.3867 202.133 13.1733 201.999 14.08C201.893 14.96 201.773 15.7467 201.639 16.44C199.986 16.3333 198.426 16.28 196.959 16.28C195.519 16.28 194.599 16.36 194.199 16.52C193.986 16.6 193.786 17.1467 193.599 18.16C193.439 19.1733 193.359 20.12 193.359 21C193.359 22.1733 193.519 23.08 193.839 23.72C194.186 24.3333 194.719 24.76 195.439 25C196.159 25.24 197.133 25.36 198.359 25.36C198.893 25.36 200.066 25.3067 201.879 25.2L202.479 29.44ZM222.573 12.76C222.813 13.0533 222.986 13.7867 223.093 14.96C223.226 16.1333 223.293 17.92 223.293 20.32V30H216.453V20.4C216.453 20.2933 216.453 19.7733 216.453 18.84C216.453 17.88 216.386 17.2933 216.253 17.08C216.173 16.9733 215.973 16.8933 215.653 16.84C215.359 16.7867 215.013 16.76 214.613 16.76L213.933 16.8C213.186 16.8267 212.413 17 211.613 17.32V30H204.773V6L211.613 5.72V10.4C211.613 12.32 211.546 13.6 211.413 14.24L211.453 14.28C213.266 12.2267 215.439 11.2 217.973 11.2C218.933 11.2 219.826 11.3333 220.653 11.6C221.506 11.8667 222.146 12.2533 222.573 12.76Z" fill="white"/>
</svg>
