<svg
   width="166"
   height="63"
   viewBox="0 0 166 63"
   xmlns="http://www.w3.org/2000/svg"
>
   <path
      d="M12.2 50L0.85 14.7H8.65L16.95 41.85H13.9L22 14.7H28.15L36.25 41.85H33.25L41.5 14.7H49.25L37.9 50H31.75L23.6 22.85H26.5L18.35 50H12.2ZM53.4977 50V14.7H61.3477V50H53.4977ZM73.4461 50V43.1H82.1961C84.3294 43.1 86.1961 42.6833 87.7961 41.85C89.3961 40.9833 90.6294 39.7333 91.4961 38.1C92.3628 36.4667 92.7961 34.5333 92.7961 32.3C92.7961 30.0667 92.3461 28.15 91.4461 26.55C90.5794 24.95 89.3461 23.7167 87.7461 22.85C86.1794 21.9833 84.3294 21.55 82.1961 21.55H73.1961V14.7H82.2961C84.9628 14.7 87.4128 15.1333 89.6461 16C91.9128 16.8333 93.8794 18.05 95.5461 19.65C97.2461 21.2167 98.5461 23.0833 99.4461 25.25C100.379 27.3833 100.846 29.75 100.846 32.35C100.846 34.9167 100.379 37.2833 99.4461 39.45C98.5461 41.6167 97.2628 43.4833 95.5961 45.05C93.9294 46.6167 91.9628 47.8333 89.6961 48.7C87.4628 49.5667 85.0294 50 82.3961 50H73.4461ZM68.1461 50V14.7H75.9961V50H68.1461ZM105.841 50V14.7H113.691V50H105.841ZM111.841 50V43.2H131.191V50H111.841ZM111.841 35.25V28.7H129.441V35.25H111.841ZM111.841 21.45V14.7H130.941V21.45H111.841ZM142.603 35.45V29.65H150.053C151.62 29.65 152.82 29.25 153.653 28.45C154.52 27.65 154.953 26.5667 154.953 25.2C154.953 23.9333 154.536 22.8833 153.703 22.05C152.87 21.2167 151.67 20.8 150.103 20.8H142.603V14.7H151.003C153.336 14.7 155.386 15.15 157.153 16.05C158.92 16.9167 160.303 18.1333 161.303 19.7C162.303 21.2667 162.803 23.0667 162.803 25.1C162.803 27.1667 162.303 28.9833 161.303 30.55C160.303 32.0833 158.903 33.2833 157.103 34.15C155.303 35.0167 153.186 35.45 150.753 35.45H142.603ZM136.603 50V14.7H144.453V50H136.603ZM155.803 50L144.803 34.8L152.003 32.85L165.103 50H155.803Z"
      fill="black"
   />
   <path d="M57.5 14.5V50" stroke="#C626EA" stroke-width="8" />
</svg>