<svg
   viewBox="0 0 294 63"
   fill="none"
   xmlns="http://www.w3.org/2000/svg"
>
   <path d="M268 7H0L26 48H294L268 7Z" fill="#44A757" />
   <path
      d="M84.2 34H77.56L76.36 39H69L76.36 16.2H85.76L92.8 39H85.4L84.2 34ZM80.84 21.12L78.48 29.56H83.24L81 21.12H80.84ZM94.8291 16.2H102.029V39H94.8291V16.2ZM118.654 22.36C118.654 22.92 118.934 23.36 119.494 23.68C120.08 24 120.987 24.3467 122.214 24.72C123.68 25.2 124.88 25.6667 125.814 26.12C126.774 26.5733 127.6 27.28 128.294 28.24C129.014 29.2 129.374 30.4533 129.374 32C129.374 36.96 126.147 39.44 119.694 39.44C118.627 39.44 117.32 39.3467 115.774 39.16C114.254 38.9733 112.867 38.7333 111.614 38.44C111.667 37.88 111.774 37.0667 111.934 36C112.12 34.9067 112.294 34.0933 112.454 33.56C113.387 33.6933 114.787 33.8533 116.654 34.04C118.547 34.2267 119.974 34.32 120.934 34.32C121.494 34.32 121.827 34.28 121.934 34.2C122.094 34.0933 122.214 33.92 122.294 33.68C122.4 33.4133 122.454 33.1867 122.454 33C122.454 32.4667 122.2 32.0667 121.694 31.8C121.187 31.5067 120.32 31.16 119.094 30.76C117.627 30.3067 116.414 29.84 115.454 29.36C114.494 28.88 113.654 28.1333 112.934 27.12C112.214 26.1067 111.854 24.7733 111.854 23.12C111.854 21.9467 112.12 20.8 112.654 19.68C113.187 18.5333 113.734 17.76 114.294 17.36C114.72 17.0667 115.6 16.7867 116.934 16.52C118.267 16.2533 119.52 16.12 120.694 16.12C123.68 16.12 126.12 16.4 128.014 16.96C127.987 17.4933 127.894 18.2267 127.734 19.16C127.6 20.0933 127.454 20.9467 127.294 21.72L126.374 21.68C122.907 21.44 120.694 21.32 119.734 21.32C119.334 21.32 119.107 21.3333 119.054 21.36C118.947 21.4133 118.854 21.5333 118.774 21.72C118.694 21.9067 118.654 22.12 118.654 22.36ZM143.48 34.2C144.146 34.2 145.386 34.1333 147.2 34C147.44 34 147.88 33.9733 148.52 33.92L149.12 38.04C147.066 39 144.4 39.48 141.12 39.48C138.053 39.48 135.693 38.7067 134.04 37.16C132.413 35.6133 131.6 33.28 131.6 30.16C131.6 28.56 131.8 27.0133 132.2 25.52C132.626 24.0267 133.106 22.9867 133.64 22.4C134.2 21.8133 135.24 21.3067 136.76 20.88C138.28 20.4533 139.786 20.24 141.28 20.24C143.68 20.24 145.48 20.6667 146.68 21.52C147.88 22.3733 148.666 23.56 149.04 25.08C149.413 26.5733 149.6 28.5867 149.6 31.12C147.786 31.2267 146.013 31.28 144.28 31.28H138.6C138.6 32.1333 138.773 32.7733 139.12 33.2C139.493 33.6267 140.013 33.9067 140.68 34.04C141.346 34.1467 142.28 34.2 143.48 34.2ZM139 25C138.84 25.08 138.72 25.4267 138.64 26.04C138.56 26.6533 138.506 27.3467 138.48 28.12H140.56C141.813 28.12 142.72 28.1067 143.28 28.08C143.28 26.8 143.093 25.8933 142.72 25.36C142.373 24.8267 141.76 24.56 140.88 24.56C140.16 24.56 139.533 24.7067 139 25ZM162.967 39L162.327 36.48C161.101 38.48 159.394 39.48 157.207 39.48C155.421 39.48 153.954 38.9867 152.807 38C151.687 36.9867 151.127 35.5733 151.127 33.76C151.127 32.64 151.447 31.6667 152.087 30.84C152.754 29.9867 153.661 29.3867 154.807 29.04C156.301 28.6133 158.607 28.3733 161.727 28.32C161.727 26.56 161.647 25.6267 161.487 25.52C161.354 25.4133 160.927 25.36 160.207 25.36C159.754 25.36 159.127 25.3867 158.327 25.44C157.047 25.4933 155.314 25.64 153.127 25.88C152.914 24.44 152.754 22.8933 152.647 21.24C154.061 20.9467 155.541 20.7067 157.087 20.52C158.634 20.3067 160.021 20.2 161.247 20.2C163.381 20.2 164.981 20.56 166.047 21.28C167.114 21.9733 167.807 22.8933 168.127 24.04C168.447 25.1867 168.594 26.64 168.567 28.4L168.527 34.28L168.647 39H162.967ZM159.527 35C160.221 35 160.954 34.8667 161.727 34.6V31.64H161.407C159.434 31.64 158.341 31.7467 158.127 31.96C157.994 32.0933 157.887 32.2933 157.807 32.56C157.754 32.8267 157.727 33.08 157.727 33.32C157.727 33.96 157.874 34.4 158.167 34.64C158.461 34.88 158.914 35 159.527 35ZM183.056 20.2C183.402 20.2 183.762 20.24 184.136 20.32C184.536 20.4 184.829 20.4933 185.016 20.6C185.016 21.1867 184.949 22.16 184.816 23.52C184.682 24.8533 184.562 25.8 184.456 26.36C184.189 26.3333 183.696 26.32 182.976 26.32C181.296 26.32 179.802 26.4133 178.496 26.6V39H171.656V20.6H177.376L178.176 23.56H178.216C178.989 22.5467 179.816 21.7333 180.696 21.12C181.576 20.5067 182.362 20.2 183.056 20.2ZM202.292 38.44C200.132 39.16 197.719 39.52 195.052 39.52C192.065 39.52 189.825 38.7733 188.332 37.28C186.865 35.76 186.132 33.4 186.132 30.2C186.132 28.6267 186.345 27.08 186.772 25.56C187.199 24.0133 187.652 22.9733 188.132 22.44C188.692 21.8267 189.785 21.3067 191.412 20.88C193.065 20.4533 194.772 20.24 196.532 20.24C198.372 20.24 200.225 20.4 202.092 20.72C202.039 21.3867 201.945 22.1733 201.812 23.08C201.705 23.96 201.585 24.7467 201.452 25.44C199.799 25.3333 198.239 25.28 196.772 25.28C195.332 25.28 194.412 25.36 194.012 25.52C193.799 25.6 193.599 26.1467 193.412 27.16C193.252 28.1733 193.172 29.12 193.172 30C193.172 31.1733 193.332 32.08 193.652 32.72C193.999 33.3333 194.532 33.76 195.252 34C195.972 34.24 196.945 34.36 198.172 34.36C198.705 34.36 199.879 34.3067 201.692 34.2L202.292 38.44ZM222.385 21.76C222.625 22.0533 222.799 22.7867 222.905 23.96C223.039 25.1333 223.105 26.92 223.105 29.32V39H216.265V29.4C216.265 29.2933 216.265 28.7733 216.265 27.84C216.265 26.88 216.199 26.2933 216.065 26.08C215.985 25.9733 215.785 25.8933 215.465 25.84C215.172 25.7867 214.825 25.76 214.425 25.76L213.745 25.8C212.999 25.8267 212.225 26 211.425 26.32V39H204.585V15L211.425 14.72V19.4C211.425 21.32 211.359 22.6 211.225 23.24L211.265 23.28C213.079 21.2267 215.252 20.2 217.785 20.2C218.745 20.2 219.639 20.3333 220.465 20.6C221.319 20.8667 221.959 21.2533 222.385 21.76Z"
      fill="white"
   />
</svg>