<svg
   viewBox="0 0 113 160"
   fill="none"
   xmlns="http://www.w3.org/2000/svg"
>
   <path
      fill-rule="evenodd"
      clip-rule="evenodd"
      d="M29.6401 6.38016C12.0144 15.6787 0 34.1863 0 55.5C0 71.7521 6.9856 86.3726 18.1179 96.5228C38.9271 88.7792 69.692 89.8104 96.0907 93.3506C103.677 85.2185 108.849 74.8044 110.463 63.2504C83.1132 52.802 44.8323 32.7747 29.6401 6.38016ZM110.884 51.8828C74.9696 37.1028 53.1102 16.6798 42.1263 1.62198C46.4097 0.562286 50.8892 0 55.5 0C84.9366 0 109.021 22.9169 110.884 51.8828ZM90.6848 98.4239C69.8253 94.7249 49.4005 98.9576 32.3735 105.967C39.4137 109.198 47.2465 111 55.5 111C68.8551 111 81.1084 106.283 90.6848 98.4239Z"
      fill="#D7691A"
   />
   <path
      d="M14.6 148.32C11.3733 148.32 8.90667 147.52 7.2 145.92C5.52 144.293 4.68 141.853 4.68 138.6V122.68C4.68 120.6 5.64 119.56 7.56 119.56C9.48 119.56 10.44 120.6 10.44 122.68V138.6C10.44 140.28 10.8 141.507 11.52 142.28C12.2667 143.053 13.2933 143.44 14.6 143.44C17.8 143.44 19.4 141.827 19.4 138.6V122.68C19.4 120.6 20.36 119.56 22.28 119.56C24.2 119.56 25.16 120.6 25.16 122.68V138.6C25.16 141.827 24.2667 144.253 22.48 145.88C20.6933 147.507 18.0667 148.32 14.6 148.32ZM36.2194 145.64C36.2194 147.427 35.286 148.32 33.4194 148.32C32.5127 148.32 31.7927 148.093 31.2594 147.64C30.726 147.187 30.4594 146.52 30.4594 145.64V120.64C30.4594 119.68 30.6727 118.92 31.0994 118.36C31.5527 117.8 32.2994 117.52 33.3394 117.52C34.3794 117.52 35.1127 117.8 35.5394 118.36C35.9927 118.92 36.2194 119.68 36.2194 120.64V145.64ZM49.3013 148.32C46.8213 148.32 44.9813 147.733 43.7813 146.56C42.6079 145.387 42.0213 143.587 42.0213 141.16V132.84H40.9813C39.1679 132.84 38.2613 132.027 38.2613 130.4C38.2613 128.8 39.1679 128 40.9813 128H42.0213V123.68C42.0213 122.8 42.2879 122.08 42.8213 121.52C43.3813 120.96 44.1013 120.68 44.9813 120.68C45.8346 120.68 46.5146 120.947 47.0213 121.48C47.5279 121.987 47.7812 122.693 47.7812 123.6V125.56C47.7812 126.547 47.6213 127.36 47.3013 128H51.1013C52.9146 128 53.8213 128.8 53.8213 130.4C53.8213 132.027 52.9146 132.84 51.1013 132.84H47.7812V141.28C47.7812 142.08 47.8746 142.653 48.0612 143C48.2479 143.32 48.5546 143.48 48.9813 143.48C49.5413 143.48 49.9546 143.44 50.2213 143.36C50.5146 143.253 50.8746 143.2 51.3013 143.2C52.0213 143.2 52.5946 143.333 53.0213 143.6C53.4479 143.84 53.6613 144.347 53.6613 145.12C53.6613 146.213 53.3146 147.027 52.6213 147.56C51.9279 148.067 50.8213 148.32 49.3013 148.32ZM60.5231 148.32C58.6031 148.32 57.6431 147.413 57.6431 145.6V130.44C57.6431 128.6 58.6031 127.68 60.5231 127.68C61.4831 127.68 62.1765 127.893 62.6031 128.32C63.0298 128.72 63.2431 129.387 63.2431 130.32C63.7231 129.44 64.4031 128.787 65.2831 128.36C66.1898 127.907 67.2431 127.68 68.4431 127.68C70.7365 127.68 71.8831 128.68 71.8831 130.68C71.8831 131.427 71.6031 131.987 71.0431 132.36C70.4831 132.733 69.5631 132.92 68.2831 132.92C67.0298 132.92 66.0431 133.04 65.3231 133.28C64.6031 133.493 64.0965 133.907 63.8031 134.52C63.5365 135.107 63.4031 135.96 63.4031 137.08V145.6C63.4031 147.413 62.4431 148.32 60.5231 148.32ZM80.2328 148.32C77.5661 148.32 75.4861 147.707 73.9928 146.48C72.4995 145.227 71.7528 143.613 71.7528 141.64C71.7528 139.32 72.7261 137.64 74.6728 136.6C76.6461 135.56 79.5261 135.2 83.3128 135.52C83.1261 134.293 82.7395 133.467 82.1528 133.04C81.5661 132.587 80.8595 132.36 80.0328 132.36C79.3661 132.36 78.8061 132.4 78.3528 132.48C77.9261 132.533 77.5261 132.6 77.1528 132.68C76.7795 132.76 76.3261 132.8 75.7928 132.8C75.0728 132.8 74.4995 132.68 74.0728 132.44C73.6461 132.173 73.4328 131.653 73.4328 130.88C73.4328 129.787 73.8995 128.987 74.8328 128.48C75.7928 127.947 77.2995 127.68 79.3528 127.68C82.6061 127.68 85.0195 128.613 86.5928 130.48C88.1661 132.32 88.9528 134.787 88.9528 137.88C88.9528 141.453 88.2995 144.093 86.9928 145.8C85.7128 147.48 83.4595 148.32 80.2328 148.32ZM77.5128 141.64C77.5128 143.16 78.5395 143.92 80.5928 143.92C81.2595 143.92 81.7795 143.8 82.1528 143.56C82.5261 143.32 82.7928 142.84 82.9528 142.12C83.1395 141.4 83.2728 140.32 83.3528 138.88C83.2195 139.013 83.0461 139.107 82.8328 139.16C82.6195 139.213 82.4061 139.24 82.1928 139.24C80.4328 139.24 79.2061 139.413 78.5128 139.76C77.8461 140.08 77.5128 140.707 77.5128 141.64ZM101.239 148.32C98.306 148.32 95.986 147.387 94.2794 145.52C92.5994 143.653 91.7594 140.92 91.7594 137.32C91.7594 134.92 92.106 133.013 92.7994 131.6C93.4927 130.187 94.4527 129.187 95.6794 128.6C96.9327 127.987 98.346 127.68 99.9194 127.68C101.333 127.68 102.479 127.853 103.359 128.2C104.239 128.547 104.933 129.133 105.439 129.96C105.253 129.4 105.106 128.88 104.999 128.4C104.919 127.893 104.853 127.307 104.799 126.64C104.773 125.973 104.759 125.12 104.759 124.08V120.64C104.759 118.56 105.653 117.52 107.439 117.52C109.386 117.52 110.359 118.56 110.359 120.64V137.56C110.359 141.16 109.559 143.853 107.959 145.64C106.359 147.427 104.119 148.32 101.239 148.32ZM100.959 143.52C102.079 143.52 102.946 143.12 103.559 142.32C104.199 141.52 104.519 140.027 104.519 137.84C104.519 136.373 104.373 135.267 104.079 134.52C103.813 133.747 103.413 133.213 102.879 132.92C102.346 132.627 101.706 132.48 100.959 132.48C100.213 132.48 99.5727 132.627 99.0394 132.92C98.506 133.213 98.0927 133.747 97.7994 134.52C97.5327 135.267 97.3994 136.373 97.3994 137.84C97.3994 140.027 97.706 141.52 98.3194 142.32C98.9594 143.12 99.8394 143.52 100.959 143.52Z"
      fill="black"
   />
</svg>