<svg
   xmlns="http://www.w3.org/2000/svg"
   className="w-2/5 ml-auto"
   fill="none"
   viewBox="0 0 96 96"
   id="audio"
>
   <path
      stroke="#eee"
      stroke-linecap="round"
      stroke-width="5"
      d="M68 68V75C68 78.3137 65.3137 81 62 81H53"
   ></path>
   <circle cx="52" cy="81" r="5" fill="#eee"></circle>
   <path
      stroke="#eee"
      stroke-width="5"
      d="M79 47V41C79 23.8792 65.1208 10 48 10V10C30.8792 10 17 23.8792 17 41V47M68 51.5455C68 49.0351 70.0351 47 72.5455 47H74.5C81.9558 47 88 53.0442 88 60.5V60.5C88 67.9558 81.9558 74 74.5 74H72.5455C70.0351 74 68 71.9649 68 69.4545V51.5455zM27 51.5455C27 49.0351 24.9649 47 22.4545 47H20.5C13.0442 47 7 53.0442 7 60.5V60.5C7 67.9558 13.0442 74 20.5 74H22.4545C24.9649 74 27 71.9649 27 69.4545V51.5455z"
   ></path>
</svg>